<?xml version="1.0" encoding="UTF-8" standalone="no"?>
<!-- Generator: Gravit.io -->

<svg
   style="isolation:isolate"
   viewBox="0 0 721.77399 482.38626"
   width="721.77399"
   height="482.38626"
   version="1.1"
   id="svg46"
   sodipodi:docname="wite.svg"
   inkscape:version="1.4 (86a8ad7, 2024-10-11)"
   inkscape:export-filename="../e1b5c8e5/w-logo.png"
   inkscape:export-xdpi="96"
   inkscape:export-ydpi="96"
   xmlns:inkscape="http://www.inkscape.org/namespaces/inkscape"
   xmlns:sodipodi="http://sodipodi.sourceforge.net/DTD/sodipodi-0.dtd"
   xmlns="http://www.w3.org/2000/svg"
   xmlns:svg="http://www.w3.org/2000/svg">
  <sodipodi:namedview
     id="namedview48"
     pagecolor="#ffffff"
     bordercolor="#000000"
     borderopacity="0.25"
     inkscape:showpageshadow="2"
     inkscape:pageopacity="0.0"
     inkscape:pagecheckerboard="0"
     inkscape:deskcolor="#d1d1d1"
     showgrid="false"
     inkscape:lockguides="false"
     inkscape:zoom="1.1144003"
     inkscape:cx="342.33659"
     inkscape:cy="233.75801"
     inkscape:window-width="1366"
     inkscape:window-height="705"
     inkscape:window-x="-8"
     inkscape:window-y="-8"
     inkscape:window-maximized="1"
     inkscape:current-layer="g2890" />
  <defs
     id="defs21">
    <clipPath
       id="_clipPath_8TWIgR1z3pxinjWBiigzcEIrVJKv9Gq4">
      <rect
         width="500"
         height="500"
         id="rect18"
         x="0"
         y="0" />
    </clipPath>
    <clipPath
       id="_clipPath_8TWIgR1z3pxinjWBiigzcEIrVJKv9Gq4-3">
      <rect
         width="500"
         height="500"
         id="rect18-6"
         x="0"
         y="0" />
    </clipPath>
    <filter
       id="Hmac7mZraFWHw0G84Yxj4QuzeTFp0E7Y-7"
       x="-0.22044942"
       y="-0.085920962"
       width="1.4408988"
       height="1.1718419"
       filterUnits="objectBoundingBox"
       color-interpolation-filters="sRGB">
      <feGaussianBlur
         in="SourceGraphic"
         stdDeviation="6.4491559"
         id="feGaussianBlur25-5" />
      <feOffset
         dx="0"
         dy="0"
         result="pf_100_offsetBlur"
         id="feOffset27-3" />
      <feFlood
         flood-color="#000000"
         flood-opacity="0.65"
         id="feFlood29-5" />
      <feComposite
         in2="pf_100_offsetBlur"
         operator="in"
         result="pf_100_dropShadow"
         id="feComposite31-6" />
      <feBlend
         in="SourceGraphic"
         in2="pf_100_dropShadow"
         mode="normal"
         id="feBlend33-2" />
    </filter>
    <filter
       id="filter1588"
       x="-0.22015058"
       y="-0.085804492"
       width="1.4403012"
       height="1.171609"
       filterUnits="objectBoundingBox"
       color-interpolation-filters="sRGB">
      <feGaussianBlur
         in="SourceGraphic"
         stdDeviation="6.440413594258542"
         id="feGaussianBlur1578" />
      <feOffset
         dx="0"
         dy="0"
         result="pf_100_offsetBlur"
         id="feOffset1580" />
      <feFlood
         flood-color="#000000"
         flood-opacity="0.65"
         id="feFlood1582" />
      <feComposite
         in2="pf_100_offsetBlur"
         operator="in"
         result="pf_100_dropShadow"
         id="feComposite1584" />
      <feBlend
         in="SourceGraphic"
         in2="pf_100_dropShadow"
         mode="normal"
         id="feBlend1586" />
    </filter>
    <filter
       id="filter1948"
       x="-0.53485852"
       y="-0.20846306"
       width="2.0697169"
       height="1.4169261"
       filterUnits="objectBoundingBox"
       color-interpolation-filters="sRGB">
      <feGaussianBlur
         in="SourceGraphic"
         stdDeviation="15.647063"
         id="feGaussianBlur1938" />
      <feOffset
         dx="0"
         dy="0"
         result="pf_100_offsetBlur"
         id="feOffset1940" />
      <feFlood
         flood-color="#000000"
         flood-opacity="0.65"
         id="feFlood1942" />
      <feComposite
         in2="pf_100_offsetBlur"
         operator="in"
         result="pf_100_dropShadow"
         id="feComposite1944" />
      <feBlend
         in="SourceGraphic"
         in2="pf_100_dropShadow"
         mode="normal"
         id="feBlend1946" />
    </filter>
    <linearGradient
       id="IconifyId1813088fe1fbc01fb467-5"
       x1="188.00648"
       x2="199.00609"
       y1="3.5533929"
       y2="141.10861"
       gradientTransform="matrix(1.4315033,0,0,2.6096594,-66.602048,8.5450493)"
       gradientUnits="userSpaceOnUse">
      <stop
         offset="0%"
         stop-color="#FFEA83"
         id="stop3-1" />
      <stop
         offset="8.333%"
         stop-color="#FFDD35"
         id="stop4-7" />
      <stop
         offset="100%"
         stop-color="#FFA800"
         id="stop5-1" />
    </linearGradient>
  </defs>
  <g
     id="g1786"
     transform="translate(143.32863,-8.5448258)">
    <g
       id="g2890">
      <g
         clip-path="url(#_clipPath_8TWIgR1z3pxinjWBiigzcEIrVJKv9Gq4-3)"
         id="g44-9"
         style="isolation:isolate"
         transform="translate(-178.88325,0.095941)">
        <path
           d="M 316.12799,453.63886 458.85275,54.400252 c 2.41963,-6.771211 -1.39499,-11.708306 -8.51537,-11.017548 L 338.09819,54.258938 c -7.11939,0.690758 -14.81053,6.767258 -17.16238,13.561199 L 188.8307,449.36287 c -2.35381,6.79394 1.54334,12.31013 8.69613,12.31013 h 109.24781 c 3.57591,0 7.46225,-2.74722 8.67255,-6.13382 z"
           fill="#536b8a"
           id="path23-1"
           style="stroke-width:0.985296" />
        <path
           d="M 328.15604,45.886499 180.69733,441.63122 c -2.49991,6.71196 1.35602,11.63965 8.60765,10.99656 l 114.30801,-10.12475 c 7.25062,-0.64307 15.11262,-6.63298 17.54365,-13.36792 L 457.70904,50.905384 c 2.43303,-6.734938 -1.50378,-12.2384 -8.78464,-12.281725 L 337.72069,37.961923 c -3.63993,-0.02165 -7.61084,2.683931 -8.8613,6.040889 z"
           fill="#536b8a"
           id="path23-1-6"
           style="isolation:isolate;stroke-width:0.990814" />
        <defs
           id="defs36-2">
          <filter
             id="filter1692"
             x="-0.22015058"
             y="-0.085804492"
             width="1.4403012"
             height="1.171609"
             filterUnits="objectBoundingBox"
             color-interpolation-filters="sRGB">
            <feGaussianBlur
               in="SourceGraphic"
               stdDeviation="6.440413594258542"
               id="feGaussianBlur1682" />
            <feOffset
               dx="0"
               dy="0"
               result="pf_100_offsetBlur"
               id="feOffset1684" />
            <feFlood
               flood-color="#000000"
               flood-opacity="0.65"
               id="feFlood1686" />
            <feComposite
               in2="pf_100_offsetBlur"
               operator="in"
               result="pf_100_dropShadow"
               id="feComposite1688" />
            <feBlend
               in="SourceGraphic"
               in2="pf_100_dropShadow"
               mode="normal"
               id="feBlend1690" />
          </filter>
        </defs>
        <g
           filter="url(#Hmac7mZraFWHw0G84Yxj4QuzeTFp0E7Y)"
           id="g40-7"
           style="filter:url(#Hmac7mZraFWHw0G84Yxj4QuzeTFp0E7Y-7)">
          <path
             d="M 301.848,455.466 241.359,280.725 250,275.324 311.57,453.543 Z"
             fill="#ebebeb"
             id="path38-0" />
          <path
             d="m 399.13317,223.96007 -60.489,-174.741 8.641,-5.401 61.57,178.219 z"
             fill="#ebebeb"
             id="path38-0-2"
             style="isolation:isolate;filter:url(#Hmac7mZraFWHw0G84Yxj4QuzeTFp0E7Y-7)" />
        </g>
        <path
           d="m 44.963,38.392 114.251,11.006 c 7.247,0.699 15.084,6.845 17.49,13.717 l 137.318,392.333 c 1.202,3.437 -0.777,6.225 -4.418,6.225 H 197.695 c -7.281,0 -15.193,-5.562 -17.657,-12.414 L 36.295,49.541 c -2.463,-6.852 1.42,-11.848 8.668,-11.149 z"
           fill="#5d87bf"
           id="path42-9" />
      </g>
      <g
         clip-path="url(#_clipPath_8TWIgR1z3pxinjWBiigzcEIrVJKv9Gq4)"
         id="g44"
         style="display:inline;isolation:isolate"
         transform="translate(114)">
        <path
           d="M 318.422,453.543 463.705,49.541 c 2.463,-6.852 -1.42,-11.848 -8.668,-11.149 L 340.786,49.398 c -7.247,0.699 -15.076,6.848 -17.47,13.723 L 188.843,449.216 c -2.396,6.875 1.571,12.457 8.852,12.457 h 111.206 c 3.64,0 7.596,-2.78 8.828,-6.207 z"
           fill="#536b8a"
           id="path23" />
        <defs
           id="defs36">
          <filter
             id="Hmac7mZraFWHw0G84Yxj4QuzeTFp0E7Y"
             x="-0.22015058"
             y="-0.085804489"
             width="1.4403012"
             height="1.171609"
             filterUnits="objectBoundingBox"
             color-interpolation-filters="sRGB">
            <feGaussianBlur
               in="SourceGraphic"
               stdDeviation="6.440413594258542"
               id="feGaussianBlur25" />
            <feOffset
               dx="0"
               dy="0"
               result="pf_100_offsetBlur"
               id="feOffset27" />
            <feFlood
               flood-color="#000000"
               flood-opacity="0.65"
               id="feFlood29" />
            <feComposite
               in2="pf_100_offsetBlur"
               operator="in"
               result="pf_100_dropShadow"
               id="feComposite31" />
            <feBlend
               in="SourceGraphic"
               in2="pf_100_dropShadow"
               mode="normal"
               id="feBlend33" />
          </filter>
        </defs>
        <g
           filter="url(#Hmac7mZraFWHw0G84Yxj4QuzeTFp0E7Y)"
           id="g40">
          <path
             d="M 301.848,455.466 241.359,280.725 250,275.324 311.57,453.543 Z"
             fill="#ebebeb"
             id="path38" />
        </g>
        <path
           d="m 44.963,38.392 114.251,11.006 c 7.247,0.699 15.084,6.845 17.49,13.717 l 137.318,392.333 c 1.202,3.437 -0.777,6.225 -4.418,6.225 H 197.695 c -7.281,0 -15.193,-5.562 -17.657,-12.414 L 36.295,49.541 c -2.463,-6.852 1.42,-11.848 8.668,-11.149 z"
           fill="#5d87bf"
           id="path42" />
        <path
           d="M 308.19782,460.46715 194.00727,448.89961 C 186.76409,448.165 178.96007,442.003 176.59081,435.14692 L 41.371065,43.722868 c -1.183619,-3.429032 0.81025,-6.194859 4.451197,-6.175499 l 111.907398,0.595064 c 7.2809,0.03872 15.16306,5.61955 17.59042,12.456025 l 141.6052,398.812362 c 2.42635,6.83646 -1.48329,11.79095 -8.72746,11.05633 z"
           fill="#5d87bf"
           id="path42-6"
           style="display:inline;isolation:isolate;stroke-width:0.997916" />
      </g>
      <path
         fill="url(#IconifyId1813088fe1fbc01fb467)"
         d="M 291.80171,8.6667966 119.79758,42.371067 a 6.3164038,6.3164099 0 0 0 -5.09098,5.825502 L 104.12647,226.89608 a 6.3164038,6.3164099 0 0 0 7.72537,6.52901 l 47.8891,-11.0518 c 4.48024,-1.03401 8.52946,2.91277 7.6075,7.41815 l -14.22735,69.67185 c -0.95675,4.68899 3.44425,8.69761 8.02305,7.306 l 29.57965,-8.98563 c 4.58463,-1.39161 8.9914,2.62865 8.02112,7.32149 l -22.60994,109.43742 c -1.41481,6.84598 7.69062,10.57824 11.48666,4.71025 l 2.53779,-3.91976 140.1592,-279.71567 c 2.34836,-4.68319 -1.70086,-10.02353 -6.8421,-9.03007 l -49.29619,9.51325 c -4.63099,0.89296 -8.57199,-3.42105 -7.2654,-7.95155 L 299.0884,16.61643 c 1.30849,-4.542094 -2.64795,-8.8580303 -7.28476,-7.9496334 z"
         id="path6"
         style="display:inline;isolation:isolate;fill:url(#IconifyId1813088fe1fbc01fb467-5);stroke-width:1.93279" />
    </g>
  </g>
</svg>
